{
    "asset" : {
        "generator" : "Khronos glTF Blender I/O v1.6.16",
        "version" : "2.0"
    },
    "scene" : 0,
    "scenes" : [
        {
            "name" : "Scene",
            "nodes" : [
                0
            ]
        }
    ],
    "nodes" : [
        {
            "mesh" : 0,
            "name" : "Cube.006",
            "translation" : [
                0,
                0.12300001829862595,
                0
            ]
        }
    ],
    "materials" : [
        {
            "doubleSided" : true,
            "emissiveFactor" : [
                0.37010291326146216,
                0.16802868378032088,
                1
            ],
            "name" : "Material.007",
            "pbrMetallicRoughness" : {
                "baseColorFactor" : [
                    0.800000011920929,
                    0.800000011920929,
                    0.800000011920929,
                    1
                ],
                "metallicFactor" : 0,
                "roughnessFactor" : 0.5
            }
        }
    ],
    "meshes" : [
        {
            "name" : "Cube.006",
            "primitives" : [
                {
                    "attributes" : {
                        "POSITION" : 0,
                        "NORMAL" : 1,
                        "TEXCOORD_0" : 2
                    },
                    "indices" : 3,
                    "material" : 0
                }
            ]
        }
    ],
    "accessors" : [
        {
            "bufferView" : 0,
            "componentType" : 5126,
            "count" : 1640,
            "max" : [
                0.5546298027038574,
                0.12839266657829285,
                0.5546298027038574
            ],
            "min" : [
                -0.554629921913147,
                -0.12839271128177643,
                -0.554629921913147
            ],
            "type" : "VEC3"
        },
        {
            "bufferView" : 1,
            "componentType" : 5126,
            "count" : 1640,
            "type" : "VEC3"
        },
        {
            "bufferView" : 2,
            "componentType" : 5126,
            "count" : 1640,
            "type" : "VEC2"
        },
        {
            "bufferView" : 3,
            "componentType" : 5123,
            "count" : 8256,
            "type" : "SCALAR"
        }
    ],
    "bufferViews" : [
        {
            "buffer" : 0,
            "byteLength" : 19680,
            "byteOffset" : 0
        },
        {
            "buffer" : 0,
            "byteLength" : 19680,
            "byteOffset" : 19680
        },
        {
            "buffer" : 0,
            "byteLength" : 13120,
            "byteOffset" : 39360
        },
        {
            "buffer" : 0,
            "byteLength" : 16512,
            "byteOffset" : 52480
        }
    ],
    "buffers" : [
        {
            "byteLength" : 68992,
            "uri" : "data:application/octet-stream;base64,"
        }
    ]
}
