{
    "asset" : {
        "generator" : "Khronos glTF Blender I/O v1.6.16",
        "version" : "2.0"
    },
    "scene" : 0,
    "scenes" : [
        {
            "name" : "Scene",
            "nodes" : [
                0
            ]
        }
    ],
    "nodes" : [
        {
            "mesh" : 0,
            "name" : "Torus",
            "scale" : [
                0.5,
                0.5,
                0.5
            ],
            "translation" : [
                0,
                0.13283133506774902,
                0
            ]
        }
    ],
    "materials" : [
        {
            "doubleSided" : true,
            "emissiveFactor" : [
                0.6100001335144043,
                0.29327412229423544,
                0.5770541148792461
            ],
            "name" : "Material.002",
            "pbrMetallicRoughness" : {
                "baseColorFactor" : [
                    0.14912967383861542,
                    0.9403905272483826,
                    0.2931123375892639,
                    1
                ],
                "metallicFactor" : 0,
                "roughnessFactor" : 0
            }
        }
    ],
    "meshes" : [
        {
            "name" : "Torus",
            "primitives" : [
                {
                    "attributes" : {
                        "POSITION" : 0,
                        "NORMAL" : 1,
                        "TEXCOORD_0" : 2
                    },
                    "indices" : 3,
                    "material" : 0
                }
            ]
        }
    ],
    "accessors" : [
        {
            "bufferView" : 0,
            "componentType" : 5126,
            "count" : 221,
            "max" : [
                1.25,
                0.25,
                1.25
            ],
            "min" : [
                -1.25,
                -0.25,
                -1.25
            ],
            "type" : "VEC3"
        },
        {
            "bufferView" : 1,
            "componentType" : 5126,
            "count" : 221,
            "type" : "VEC3"
        },
        {
            "bufferView" : 2,
            "componentType" : 5126,
            "count" : 221,
            "type" : "VEC2"
        },
        {
            "bufferView" : 3,
            "componentType" : 5123,
            "count" : 1152,
            "type" : "SCALAR"
        }
    ],
    "bufferViews" : [
        {
            "buffer" : 0,
            "byteLength" : 2652,
            "byteOffset" : 0
        },
        {
            "buffer" : 0,
            "byteLength" : 2652,
            "byteOffset" : 2652
        },
        {
            "buffer" : 0,
            "byteLength" : 1768,
            "byteOffset" : 5304
        },
        {
            "buffer" : 0,
            "byteLength" : 2304,
            "byteOffset" : 7072
        }
    ],
    "buffers" : [
        {
            "byteLength" : 9376,
            "uri" : "data:application/octet-stream;base64,"
        }
    ]
}
